name analog
datacolumns 19
datarows 27
range 0.0 0.013000000000000001
endheader
time	ground_force_vx	ground_force_vy	ground_force_vz	ground_force_px	ground_force_py	ground_force_pz	l_ground_force_vx	l_ground_force_vy	l_ground_force_vz	l_ground_force_px	l_ground_force_py	l_ground_force_pz	ground_torque_x	ground_torque_y	ground_torque_z	l_ground_torque_x	l_ground_torque_y	l_ground_torque_z
0.0	-0.0	-0.0	-0.0	-1.1772304773330688	13.619473457336426	-289.9953918457031	2.323164224624634	-13.223337173461914	-478.1199035644531	-0.0	-0.0	-0.0	-0.0	-0.0	-0.0	167110.59375	-22617.25390625	-1212.353271484375
0.0005	-0.0	-0.0	-0.0	-1.534218192100525	13.877906799316406	-290.5623474121094	2.4586586952209477	-12.966532707214355	-478.0216979980469	-0.0	-0.0	-0.0	-0.0	-0.0	-0.0	166791.34375	-23000.484375	-1241.8072509765625
0.001	-0.0	-0.0	-0.0	-1.3470255136489868	13.521241188049316	-291.9745178222656	2.268542766571045	-13.080034255981444	-479.08544921875	-0.0	-0.0	-0.0	-0.0	-0.0	-0.0	167043.734375	-22841.697265625	-1236.2799072265625
0.0015	-0.0	-0.0	-0.0	-1.0794556140899658	13.71716022491455	-292.6801452636719	2.2262930870056152	-13.248252868652344	-478.5054321289063	-0.0	-0.0	-0.0	-0.0	-0.0	-0.0	167165.6875	-22891.134765625	-1182.6429443359375
0.002	-0.0	-0.0	-0.0	-1.926626801490784	13.583792686462402	-290.8096618652344	2.724250316619873	-12.983287811279297	-478.02239990234375	-0.0	-0.0	-0.0	-0.0	-0.0	-0.0	166720.484375	-22653.4375	-1179.2999267578125
0.0025	-0.0	-0.0	-0.0	-1.6316536664962769	13.85009479522705	-292.32550048828125	2.7586770057678223	-13.054399490356444	-478.3377075195313	-0.0	-0.0	-0.0	-0.0	-0.0	-0.0	166884.28125	-22604.6484375	-950.6031494140624
0.003	-0.0	-0.0	-0.0	-1.4638572931289673	13.842554092407228	-291.72662353515625	2.607473611831665	-13.23957633972168	-476.66058349609375	-0.0	-0.0	-0.0	-0.0	-0.0	-0.0	166820.703125	-22887.291015625	-1146.748779296875
0.0035	-0.0	-0.0	-0.0	-1.8708041906356807	13.387908935546877	-292.50567626953125	2.7412590980529785	-13.097820281982422	-476.5919799804688	-0.0	-0.0	-0.0	-0.0	-0.0	-0.0	166489.140625	-22460.5703125	-861.3141479492188
0.004	-0.0	-0.0	-0.0	-1.7657486200332642	13.59393310546875	-292.8227233886719	2.9274559020996094	-13.089178085327148	-475.648681640625	-0.0	-0.0	-0.0	-0.0	-0.0	-0.0	166369.0	-22631.06640625	-941.640869140625
0.0045000000000000005	-0.0	-0.0	-0.0	-1.9068094491958616	14.205092430114746	-290.4244079589844	2.661323547363281	-12.833213806152344	-475.2303771972656	-0.0	-0.0	-0.0	-0.0	-0.0	-0.0	166222.53125	-22756.666015625	-906.1610107421876
0.005	-0.0	-0.0	-0.0	-1.3101028203964231	13.505406379699709	-291.7066650390625	2.643437147140503	-13.062705039978027	-475.5444946289063	-0.0	-0.0	-0.0	-0.0	-0.0	-0.0	165931.96875	-22745.78515625	-950.6871948242188
0.0055	-0.0	-0.0	-0.0	-1.9343913793563845	13.86672306060791	-293.5848388671875	2.4748973846435547	-12.974322319030762	-475.5444946289063	-0.0	-0.0	-0.0	-0.0	-0.0	-0.0	165841.140625	-22720.392578125	-965.8397216796876
0.006	-0.0	-0.0	-0.0	-1.8962373733520508	13.993473052978516	-293.101806640625	2.324631929397583	-12.887968063354492	-473.69964599609375	-0.0	-0.0	-0.0	-0.0	-0.0	-0.0	165808.09375	-22421.794921875	-1169.972900390625
0.006500000000000001	-0.0	-0.0	-0.0	-1.3061456680297852	13.277020454406738	-292.9506530761719	2.245140790939331	-12.754657745361328	-474.0760803222656	-0.0	-0.0	-0.0	-0.0	-0.0	-0.0	165557.171875	-22402.384765625	-1105.3140869140625
0.007	-0.0	-0.0	-0.0	-1.3765814304351809	13.665743827819824	-292.8622436523437	2.358406543731689	-12.78833293914795	-473.5581665039063	-0.0	-0.0	-0.0	-0.0	-0.0	-0.0	165558.6875	-22592.900390625	-1102.215576171875
0.0075	-0.0	-0.0	-0.0	-1.1790446043014526	13.954891204833984	-294.8288269042969	2.5541248321533203	-12.71832275390625	-473.87152099609375	-0.0	-0.0	-0.0	-0.0	-0.0	-0.0	165332.234375	-22293.490234375	-1184.8843994140625
0.008	-0.0	-0.0	-0.0	-1.4565118551254272	13.68725872039795	-293.8072509765625	1.900143265724182	-12.834434509277344	-473.87200927734375	-0.0	-0.0	-0.0	-0.0	-0.0	-0.0	165332.0	-22624.052734375	-1304.0150146484375
0.0085	-0.0	-0.0	-0.0	-1.6046655178070068	13.586935997009276	-294.07818603515625	1.961013913154602	-12.857624053955078	-474.1109924316406	-0.0	-0.0	-0.0	-0.0	-0.0	-0.0	165423.90625	-22510.33203125	-1141.646484375
0.009000000000000001	-0.0	-0.0	-0.0	-1.4470396041870115	13.537994384765623	-294.8663330078125	1.6533421277999878	-12.737089157104492	-473.4495849609375	-0.0	-0.0	-0.0	-0.0	-0.0	-0.0	165371.734375	-22383.865234375	-1227.7396240234375
0.0095	-0.0	-0.0	-0.0	-1.784210205078125	13.963807106018066	-294.827392578125	1.783701777458191	-12.88552188873291	-475.28314208984375	-0.0	-0.0	-0.0	-0.0	-0.0	-0.0	165471.03125	-22168.544921875	-1316.7381591796875
0.01	-0.0	-0.0	-0.0	-1.714937686920166	14.02284336090088	-295.73004150390625	2.0785765647888184	-12.69660758972168	-472.8641357421875	-0.0	-0.0	-0.0	-0.0	-0.0	-0.0	165230.140625	-22439.58984375	-1224.3638916015625
0.0105	-0.0	-0.0	-0.0	-1.477453112602234	13.913409233093262	-296.3973083496094	1.8414499759674072	-12.677814483642578	-474.4592590332031	-0.0	-0.0	-0.0	-0.0	-0.0	-0.0	165215.96875	-22211.76171875	-1366.4564208984375
0.011	-0.0	-0.0	-0.0	-1.7252691984176636	13.953149795532228	-297.6045227050781	1.8726038932800293	-12.71832275390625	-472.5227355957031	-0.0	-0.0	-0.0	-0.0	-0.0	-0.0	165297.203125	-22314.46875	-1323.2965087890625
0.0115	-0.0	-0.0	-0.0	-1.2895479202270508	13.794930458068848	-296.0853271484375	1.6065315008163452	-12.954203605651855	-472.16796875	-0.0	-0.0	-0.0	-0.0	-0.0	-0.0	164987.21875	-22517.421875	-1284.213623046875
0.012	-0.0	-0.0	-0.0	-1.4757856130599976	14.151355743408203	-298.19482421875	1.9222817420959477	-13.180057525634766	-474.3045043945313	-0.0	-0.0	-0.0	-0.0	-0.0	-0.0	164994.0	-22402.23046875	-1386.3743896484375
0.0125	-0.0	-0.0	-0.0	-1.3689711093902588	13.499738693237305	-295.42108154296875	1.5869364738464355	-12.757579803466797	-471.1607360839844	-0.0	-0.0	-0.0	-0.0	-0.0	-0.0	164902.453125	-22466.814453125	-1369.9539794921875
0.013000000000000001	-0.0	-0.0	-0.0	-1.3278381824493408	13.81521224975586	-295.8976135253906	1.5873284339904783	-12.71832275390625	-473.3326416015625	-0.0	-0.0	-0.0	-0.0	-0.0	-0.0	165151.1875	-22356.328125	-1280.9676513671875
